<svg width="576" height="669" viewBox="0 0 576 669" fill="none" xmlns="http://www.w3.org/2000/svg">
<g clip-path="url(#clip0_418_266)">
<path d="M154.018 203.647C149.912 205.211 145.719 206.537 141.46 207.619C135.835 208.99 132.658 209.625 127.229 207.518C127.038 207.444 126.856 207.371 126.684 207.299C116.393 202.923 107.595 195.65 101.363 186.364C95.1299 177.079 91.731 166.182 91.5795 155C91.5524 154.616 91.5524 154.213 91.5524 153.819C91.5471 151.924 91.6377 150.03 91.8238 148.144C92.0618 145.575 92.4727 143.025 93.0539 140.511L92.9997 140.501C88.6037 136.006 86.9122 129.849 87.473 123.662C87.8572 119.467 89.1884 115.415 91.3663 111.809C93.5442 108.204 96.5119 105.14 100.046 102.848C105.584 99.3661 111.829 97.1618 118.326 96.3957C120.071 96.1946 121.826 96.0928 123.582 96.0908H140.08C143.488 95.293 146.95 94.7473 150.437 94.458H150.464C183.67 91.7039 209.856 113.717 207.413 140.501C207.395 140.531 207.368 140.56 207.35 140.59C206.645 141.741 206.02 142.832 205.469 143.875C204.935 144.849 204.483 145.783 204.094 146.668C201.064 153.514 215.464 259.73 210.299 261.343C207.359 262.258 195.51 183.22 197.635 198.249C200.313 217.105 169.315 197.992 154.018 203.647Z" fill="#2F2E41"/>
<path d="M204.04 395.654L250.069 493.714L73.0059 475.781L109.967 381.645L204.04 395.654Z" fill="#FFB6B6"/>
<path d="M296.439 592.26C265.648 602.509 233.201 606.855 200.799 605.07L186.709 582.22C186.709 582.22 186.119 590.73 185.239 603.74C169.814 601.953 154.591 598.725 139.769 594.1C111.659 585.31 85.3086 571.69 58.5986 559.13C53.1886 526.88 51.1586 477.15 81.0686 448.2L242.059 477.7C242.059 477.7 267.889 497.02 260.979 503.94C254.069 510.85 252.999 509.78 257.539 514.32C262.079 518.86 271.889 524.93 271.989 528.9C272.029 530.45 283.039 558.56 296.439 592.26Z" fill="#2F2E41"/>
<path d="M175.926 206.167L137.032 208.88L111.893 233.172L103.088 234.744C95.1744 236.155 88.0534 240.421 83.0757 246.733C78.0979 253.045 75.6095 260.964 76.0822 268.989C77.8932 299.672 81.9481 345.517 90.423 360.391C103.564 383.454 114.419 376.218 103.564 383.454C92.7098 390.69 85.4226 385.004 90.423 396.44C95.4234 407.876 83.6646 422.545 83.6646 422.545L78.9836 427.226L83.9483 429.261L242.145 449.845C242.145 449.845 228.466 388.343 237.021 373.235C245.575 358.127 266.317 312.459 247.805 294.589L229.705 230.895L198.571 221.713L175.926 206.167Z" fill="#29B2FE"/>
<path d="M411.375 458.589C408.772 458.506 406.218 457.859 403.889 456.692C401.561 455.526 399.514 453.867 397.89 451.832C396.265 449.796 395.103 447.432 394.482 444.903C393.861 442.374 393.797 439.74 394.294 437.183L320.088 386.928L328.942 362.985L416.642 423.318C420.883 424.475 424.551 427.148 426.953 430.829C429.355 434.511 430.323 438.946 429.674 443.293C429.025 447.641 426.803 451.599 423.431 454.418C420.058 457.237 415.768 458.721 411.375 458.589Z" fill="#FFB6B6"/>
<path d="M201.777 227.887L190.994 232.157L248.516 344.5L367.595 425.669L384.76 396.657L294.115 318.363L257.826 248.765C252.719 238.97 244.163 231.415 233.812 227.559C223.46 223.704 212.047 223.82 201.777 227.887Z" fill="#29B2FE"/>
<path d="M154.454 196.286C176.024 196.286 193.51 178.8 193.51 157.231C193.51 135.661 176.024 118.175 154.454 118.175C132.884 118.175 115.398 135.661 115.398 157.231C115.398 178.8 132.884 196.286 154.454 196.286Z" fill="#FFB6B6"/>
<path d="M188.418 140.715C187.767 141.059 187.125 141.375 186.473 141.692C185.795 142.017 185.117 142.343 184.429 142.65C171.359 148.575 160.712 149.236 154.254 140.715C154.077 136.232 153.068 131.821 151.278 127.708C151.594 132.305 150.383 136.878 147.832 140.715H134.825C121.429 149.606 114.554 157.774 123.853 186.963C124.459 188.881 128.611 257.01 129.796 262.247C109.516 254.468 92.0225 171.876 91.5793 150.113C91.5522 149.76 91.5522 149.389 91.5522 149.027C91.5469 147.284 91.6375 145.542 91.8236 143.808C92.0622 141.442 92.4734 139.096 93.0537 136.789L92.9994 136.78C90.9361 134.807 89.362 132.38 88.4025 129.692C87.443 127.003 87.1246 124.128 87.4728 121.295C90.8747 116.84 95.0847 113.066 99.8829 110.169C104.246 108.056 108.794 106.348 113.469 105.067C113.586 105.04 113.686 105.013 113.804 104.986C115.233 104.597 116.698 104.244 118.163 103.937C121.183 103.303 124.236 102.841 127.308 102.553C127.534 102.544 127.751 102.526 127.95 102.526C129.179 102.526 130.385 102.858 131.442 103.484C131.451 103.484 131.451 103.493 131.469 103.493C132.484 104.1 133.327 104.958 133.914 105.985C134.502 107.011 134.816 108.172 134.825 109.355H149.315C149.849 109.355 150.383 109.373 150.916 109.4C171.096 110.205 187.315 118.834 188.355 138.671C188.4 139.358 188.418 140.027 188.418 140.715Z" fill="#2F2E41"/>
<path d="M102.748 142.285C116.958 142.285 128.478 130.765 128.478 116.555C128.478 102.344 116.958 90.8247 102.748 90.8247C88.5374 90.8247 77.0176 102.344 77.0176 116.555C77.0176 130.765 88.5374 142.285 102.748 142.285Z" fill="#2F2E41"/>
<path d="M138.071 104.654C135.148 118.56 120.726 126.878 106.929 123.475C100.304 121.841 94.5985 117.643 91.0688 111.802C87.5391 105.962 86.474 98.9587 88.1078 92.3331C91.5101 78.536 108.255 82.5136 119.25 73.5116C134.805 60.777 142.014 85.8998 138.071 104.654Z" fill="#2F2E41"/>
<path d="M80.9041 491.756C102.833 402.329 146.284 325.465 218.245 265.242C221.03 260.661 225.518 257.371 230.726 256.095C235.933 254.819 241.434 255.66 246.022 258.435L417.091 362.157C421.672 364.942 424.962 369.431 426.238 374.638C427.514 379.846 426.673 385.347 423.898 389.934C396.432 481.697 355.294 561.322 286.557 616.449C283.773 621.03 279.284 624.32 274.077 625.596C268.869 626.872 263.368 626.031 258.78 623.256L87.712 519.534C83.1305 516.749 79.8407 512.26 78.5645 507.053C77.2882 501.845 78.1296 496.344 80.9041 491.756Z" fill="#F2F2F2"/>
<path opacity="0.2" d="M111.31 521.895C106.728 519.11 103.439 514.621 102.162 509.414C100.886 504.206 101.728 498.705 104.502 494.117C126.431 404.69 169.883 327.825 241.843 267.603C243.686 264.604 246.289 262.145 249.388 260.476L246.022 258.434C241.434 255.66 235.933 254.818 230.726 256.095C225.518 257.371 221.03 260.66 218.245 265.242C146.284 325.464 102.834 402.328 80.9043 491.756C78.1297 496.344 77.2882 501.845 78.5644 507.052C79.8406 512.26 83.1304 516.748 87.7118 519.533L258.78 623.256C261.825 625.088 265.3 626.083 268.853 626.139C272.406 626.195 275.911 625.311 279.012 623.576L111.31 521.895Z" fill="black"/>
<path d="M311.929 471.931L197.1 402.743C195.276 401.64 193.964 399.859 193.452 397.79C192.94 395.72 193.271 393.533 194.371 391.707C195.471 389.881 197.251 388.567 199.319 388.052C201.388 387.538 203.576 387.865 205.403 388.963L320.232 458.152C322.052 459.256 323.36 461.037 323.869 463.104C324.378 465.171 324.047 467.356 322.948 469.18C321.85 471.003 320.073 472.316 318.007 472.832C315.942 473.348 313.756 473.024 311.929 471.931Z" fill="white"/>
<path d="M245.128 380.18L219.865 364.959C218.035 363.863 216.714 362.086 216.194 360.017C215.674 357.948 215.997 355.757 217.092 353.926C218.187 352.095 219.965 350.775 222.034 350.255C224.103 349.735 226.294 350.058 228.125 351.153L228.168 351.179L253.43 366.401C255.251 367.505 256.559 369.286 257.069 371.353C257.578 373.421 257.247 375.606 256.148 377.429C255.049 379.253 253.272 380.567 251.206 381.082C249.141 381.598 246.955 381.274 245.128 380.18Z" fill="white"/>
<path d="M293.678 502.22L178.849 433.032C177.023 431.932 175.708 430.152 175.193 428.083C174.678 426.014 175.006 423.825 176.104 421.998C177.202 420.17 178.981 418.854 181.049 418.337C183.118 417.82 185.307 418.146 187.135 419.242L187.152 419.252L301.981 488.441C303.801 489.545 305.108 491.326 305.617 493.393C306.127 495.46 305.796 497.645 304.697 499.468C303.598 501.292 301.821 502.605 299.756 503.121C297.691 503.637 295.505 503.313 293.678 502.22Z" fill="white"/>
<path d="M326.512 341.474C345.035 341.474 360.051 326.458 360.051 307.935C360.051 289.412 345.035 274.396 326.512 274.396C307.989 274.396 292.973 289.412 292.973 307.935C292.973 326.458 307.989 341.474 326.512 341.474Z" fill="#3F3D56"/>
<path d="M268.699 667.318C308.289 667.318 340.384 635.224 340.384 595.633C340.384 556.043 308.289 523.948 268.699 523.948C229.108 523.948 197.014 556.043 197.014 595.633C197.014 635.224 229.108 667.318 268.699 667.318Z" fill="white"/>
<path d="M268.699 668.319C254.323 668.319 240.27 664.056 228.317 656.069C216.364 648.082 207.048 636.73 201.547 623.449C196.045 610.168 194.606 595.553 197.41 581.454C200.215 567.354 207.137 554.403 217.302 544.238C227.468 534.072 240.419 527.15 254.518 524.345C268.618 521.541 283.232 522.98 296.514 528.481C309.795 533.982 321.147 543.299 329.134 555.252C337.121 567.204 341.384 581.257 341.384 595.633C341.362 614.904 333.697 633.379 320.071 647.005C306.445 660.632 287.969 668.297 268.699 668.319ZM268.699 524.948C254.719 524.948 241.052 529.094 229.428 536.861C217.804 544.628 208.744 555.668 203.394 568.584C198.044 581.5 196.644 595.712 199.372 609.424C202.099 623.135 208.831 635.73 218.717 645.616C228.603 655.501 241.198 662.233 254.909 664.96C268.621 667.688 282.833 666.288 295.749 660.938C308.665 655.588 319.705 646.528 327.471 634.904C335.238 623.28 339.384 609.613 339.384 595.633C339.363 576.893 331.909 558.926 318.657 545.675C305.406 532.423 287.439 524.97 268.699 524.948Z" fill="#3F3D56"/>
<path d="M258.919 632.942C257.681 632.942 256.46 632.654 255.353 632.1C254.246 631.546 253.283 630.742 252.54 629.752L232.983 603.676C232.354 602.838 231.896 601.885 231.635 600.87C231.375 599.855 231.317 598.799 231.464 597.762C231.612 596.724 231.963 595.726 232.497 594.825C233.03 593.923 233.736 593.135 234.574 592.507C235.413 591.878 236.367 591.421 237.382 591.161C238.397 590.901 239.453 590.844 240.49 590.993C241.527 591.142 242.525 591.493 243.426 592.028C244.327 592.562 245.114 593.269 245.742 594.107L258.537 611.166L291.398 561.874C291.979 561.003 292.726 560.254 293.596 559.672C294.466 559.089 295.442 558.683 296.469 558.478C297.496 558.273 298.553 558.272 299.58 558.475C300.608 558.678 301.585 559.082 302.456 559.663C303.328 560.243 304.076 560.99 304.659 561.86C305.241 562.73 305.647 563.707 305.852 564.734C306.058 565.76 306.059 566.818 305.856 567.845C305.652 568.872 305.249 569.849 304.668 570.721L265.554 629.391C264.847 630.452 263.895 631.328 262.779 631.945C261.663 632.563 260.416 632.904 259.141 632.939C259.067 632.941 258.993 632.942 258.919 632.942Z" fill="#29B2FE"/>
<path d="M500.207 232.366C503.055 232.123 505.227 230.319 505.058 228.337C504.888 226.355 502.442 224.947 499.593 225.19C496.745 225.434 494.573 227.238 494.742 229.219C494.912 231.201 497.358 232.61 500.207 232.366Z" fill="white"/>
<path d="M532.256 221.494C535.104 221.25 537.276 219.446 537.107 217.465C536.937 215.483 534.491 214.074 531.642 214.318C528.794 214.561 526.622 216.365 526.791 218.347C526.961 220.328 529.407 221.737 532.256 221.494Z" fill="#3F3D56"/>
<path d="M485.014 207.914C487.862 207.67 490.034 205.866 489.865 203.885C489.695 201.903 487.249 200.494 484.4 200.738C481.551 200.981 479.38 202.785 479.549 204.767C479.718 206.748 482.165 208.157 485.014 207.914Z" fill="#FF6584"/>
<path d="M471.57 200.035C472.796 199.758 473.467 198.104 473.069 196.342C472.671 194.579 471.354 193.375 470.128 193.652C468.902 193.929 468.231 195.583 468.629 197.345C469.027 199.107 470.344 200.312 471.57 200.035Z" fill="#E6E6E6"/>
<path d="M461.998 180.906C463.224 180.629 463.895 178.976 463.497 177.213C463.099 175.451 461.782 174.247 460.556 174.524C459.33 174.801 458.659 176.454 459.057 178.217C459.455 179.979 460.772 181.183 461.998 180.906Z" fill="#3F3D56"/>
<path d="M507.922 207.769C509.148 207.492 509.819 205.839 509.421 204.076C509.022 202.314 507.706 201.11 506.48 201.387C505.254 201.664 504.583 203.317 504.981 205.079C505.379 206.842 506.696 208.046 507.922 207.769Z" fill="#E6E6E6"/>
<path d="M493.924 219.39C495.15 219.113 495.821 217.46 495.423 215.697C495.024 213.935 493.708 212.731 492.482 213.008C491.256 213.285 490.585 214.938 490.983 216.701C491.381 218.463 492.698 219.667 493.924 219.39Z" fill="#FF6584"/>
<path d="M519.408 228.856C520.634 228.579 521.305 226.925 520.907 225.163C520.509 223.401 519.192 222.196 517.966 222.473C516.74 222.75 516.069 224.404 516.467 226.166C516.865 227.929 518.182 229.133 519.408 228.856Z" fill="#3F3D56"/>
<path d="M367.88 84.1931C368.368 82.2652 366.518 80.1329 363.746 79.4306C360.975 78.7283 358.332 79.7218 357.844 81.6497C357.355 83.5776 359.206 85.7098 361.977 86.4122C364.748 87.1145 367.391 86.121 367.88 84.1931Z" fill="white"/>
<path d="M334.036 83.9747C334.524 82.0468 332.674 79.9146 329.903 79.2123C327.131 78.51 324.488 79.5035 324 81.4314C323.511 83.3593 325.362 85.4916 328.133 86.1939C330.905 86.8962 333.547 85.9026 334.036 83.9747Z" fill="#3F3D56"/>
<path d="M374.231 112.271C374.72 110.344 372.869 108.211 370.098 107.509C367.326 106.807 364.684 107.8 364.195 109.728C363.707 111.656 365.557 113.788 368.329 114.491C371.1 115.193 373.743 114.199 374.231 112.271Z" fill="#FF6584"/>
<path d="M382.121 122.859C382.322 121.063 381.472 119.495 380.223 119.355C378.974 119.215 377.798 120.558 377.598 122.354C377.397 124.149 378.247 125.718 379.496 125.858C380.745 125.997 381.921 124.655 382.121 122.859Z" fill="#E6E6E6"/>
<path d="M384.903 144.067C385.103 142.271 384.253 140.702 383.004 140.563C381.755 140.423 380.58 141.766 380.379 143.561C380.178 145.357 381.028 146.926 382.277 147.066C383.527 147.205 384.702 145.863 384.903 144.067Z" fill="#3F3D56"/>
<path d="M350.303 103.651C350.504 101.855 349.654 100.287 348.404 100.147C347.155 100.007 345.98 101.35 345.779 103.146C345.579 104.941 346.429 106.51 347.678 106.65C348.927 106.789 350.102 105.447 350.303 103.651Z" fill="#E6E6E6"/>
<path d="M367.334 97.2526C367.535 95.4569 366.685 93.8881 365.436 93.7485C364.187 93.6089 363.011 94.9515 362.811 96.7472C362.61 98.5428 363.46 100.112 364.709 100.251C365.958 100.391 367.134 99.0483 367.334 97.2526Z" fill="#FF6584"/>
<path d="M346.352 79.966C346.552 78.1703 345.702 76.6015 344.453 76.4619C343.204 76.3223 342.029 77.6649 341.828 79.4605C341.627 81.2562 342.478 82.8251 343.727 82.9646C344.976 83.1042 346.151 81.7617 346.352 79.966Z" fill="#3F3D56"/>
<path d="M91.5703 492.704C89.0142 491.656 86.7162 490.066 84.8351 488.043C82.954 486.021 81.5347 483.613 80.6755 480.988C79.8163 478.363 79.5375 475.582 79.8586 472.838C80.1797 470.095 81.0929 467.454 82.5351 465.098L27.4297 387.637L45.1079 367.127L109.885 459.607C113.67 462.33 116.325 466.346 117.346 470.895C118.368 475.444 117.685 480.21 115.428 484.29C113.17 488.37 109.495 491.479 105.098 493.03C100.701 494.581 95.8875 494.465 91.5703 492.704Z" fill="#FFB6B6"/>
<path d="M92.8363 247.232C90.0484 245.592 86.7672 244.999 83.5816 245.56C80.396 246.12 77.5146 247.798 75.4546 250.292L1 354.421L70 452.421L97 423.421L55 357.421L110.818 304.275C115.405 294.227 116.106 282.835 112.785 272.3C109.464 261.764 102.357 252.834 92.8363 247.232Z" fill="#29B2FE"/>
</g>
<defs>
<clipPath id="clip0_418_266">
<rect width="575.455" height="668.319" fill="white"/>
</clipPath>
</defs>
</svg>
