<svg width="336" height="523" viewBox="0 0 336 523" fill="none" xmlns="http://www.w3.org/2000/svg">
<path d="M4.806 500.773L4.86 503.068V517H3.564V497.533H4.158L16.875 512.194C17.739 513.22 18.405 514.039 18.873 514.651C18.801 513.787 18.765 512.797 18.765 511.681V497.695H20.061V517.162H19.467L6.507 502.231C5.607 501.205 5.031 500.521 4.779 500.179L4.806 500.773ZM34.614 517.27C32.112 517.27 30.015 516.397 28.323 514.651C26.631 512.905 25.785 510.772 25.785 508.252C25.785 505.714 26.631 503.572 28.323 501.826C30.015 500.08 32.112 499.207 34.614 499.207C37.116 499.207 39.213 500.08 40.905 501.826C42.597 503.572 43.443 505.714 43.443 508.252C43.443 510.772 42.597 512.905 40.905 514.651C39.213 516.397 37.116 517.27 34.614 517.27ZM34.614 500.314C32.454 500.314 30.654 501.079 29.214 502.609C27.792 504.139 27.081 506.02 27.081 508.252C27.081 510.466 27.792 512.338 29.214 513.868C30.654 515.38 32.454 516.136 34.614 516.136C36.792 516.136 38.592 515.38 40.014 513.868C41.436 512.338 42.147 510.466 42.147 508.252C42.147 506.02 41.436 504.139 40.014 502.609C38.592 501.079 36.792 500.314 34.614 500.314ZM66.3337 517.27C63.8317 517.27 61.7347 516.397 60.0427 514.651C58.3507 512.905 57.5047 510.772 57.5047 508.252C57.5047 505.714 58.3507 503.572 60.0427 501.826C61.7347 500.08 63.8317 499.207 66.3337 499.207C68.8357 499.207 70.9327 500.08 72.6247 501.826C74.3167 503.572 75.1627 505.714 75.1627 508.252C75.1627 510.772 74.3167 512.905 72.6247 514.651C70.9327 516.397 68.8357 517.27 66.3337 517.27ZM66.3337 500.314C64.1737 500.314 62.3737 501.079 60.9337 502.609C59.5117 504.139 58.8007 506.02 58.8007 508.252C58.8007 510.466 59.5117 512.338 60.9337 513.868C62.3737 515.38 64.1737 516.136 66.3337 516.136C68.5117 516.136 70.3117 515.38 71.7337 513.868C73.1557 512.338 73.8667 510.466 73.8667 508.252C73.8667 506.02 73.1557 504.139 71.7337 502.609C70.3117 501.079 68.5117 500.314 66.3337 500.314ZM80.575 517V499.558C82.123 499.432 83.437 499.369 84.517 499.369C86.173 499.369 87.541 499.801 88.621 500.665C89.701 501.511 90.241 502.726 90.241 504.31C90.241 505.372 89.935 506.353 89.323 507.253C88.711 508.153 88.018 508.882 87.244 509.44C89.386 512.284 90.709 513.985 91.213 514.543C92.239 515.605 93.355 516.208 94.561 516.352L94.534 517.189C93.526 517.171 92.707 517.027 92.077 516.757C91.447 516.469 90.817 515.992 90.187 515.326C89.575 514.66 88.216 512.869 86.11 509.953C84.652 509.953 83.221 509.908 81.817 509.818V517H80.575ZM85.435 508.927C86.137 508.927 86.893 508.459 87.703 507.523C88.513 506.587 88.918 505.498 88.918 504.256C88.918 503.014 88.495 502.069 87.649 501.421C86.803 500.773 85.705 500.449 84.355 500.449C83.635 500.449 82.789 500.485 81.817 500.557V508.792C83.113 508.882 84.319 508.927 85.435 508.927ZM102.618 516.082C104.922 516.082 106.767 515.461 108.153 514.219C109.557 512.977 110.259 511.105 110.259 508.603C110.259 506.101 109.467 504.112 107.883 502.636C106.317 501.16 104.382 500.422 102.078 500.422C100.44 500.422 99.1797 500.458 98.2977 500.53V515.893C99.3777 516.019 100.818 516.082 102.618 516.082ZM102.078 499.315C104.778 499.315 107.028 500.152 108.828 501.826C110.646 503.482 111.555 505.741 111.555 508.603C111.555 511.465 110.718 513.616 109.044 515.056C107.388 516.496 105.246 517.216 102.618 517.216C100.8 517.216 98.9277 517.126 97.0017 516.946V499.477C98.4417 499.369 100.134 499.315 102.078 499.315ZM116.962 517V499.477H125.143V500.557H118.204V506.929H124.468V507.982H118.204V515.866H125.413V517H116.962ZM130.383 517V499.558C131.931 499.432 133.245 499.369 134.325 499.369C135.981 499.369 137.349 499.801 138.429 500.665C139.509 501.511 140.049 502.726 140.049 504.31C140.049 505.372 139.743 506.353 139.131 507.253C138.519 508.153 137.826 508.882 137.052 509.44C139.194 512.284 140.517 513.985 141.021 514.543C142.047 515.605 143.163 516.208 144.369 516.352L144.342 517.189C143.334 517.171 142.515 517.027 141.885 516.757C141.255 516.469 140.625 515.992 139.995 515.326C139.383 514.66 138.024 512.869 135.918 509.953C134.46 509.953 133.029 509.908 131.625 509.818V517H130.383ZM135.243 508.927C135.945 508.927 136.701 508.459 137.511 507.523C138.321 506.587 138.726 505.498 138.726 504.256C138.726 503.014 138.303 502.069 137.457 501.421C136.611 500.773 135.513 500.449 134.163 500.449C133.443 500.449 132.597 500.485 131.625 500.557V508.792C132.921 508.882 134.127 508.927 135.243 508.927ZM150.346 500.233C149.374 500.233 148.582 500.467 147.97 500.935C147.358 501.403 147.052 502.06 147.052 502.906C147.052 503.878 147.457 504.751 148.267 505.525C148.843 506.083 149.581 506.677 150.481 507.307C151.399 507.919 152.029 508.36 152.371 508.63C152.713 508.9 153.127 509.269 153.613 509.737C154.495 510.619 154.936 511.636 154.936 512.788C154.936 514.282 154.432 515.416 153.424 516.19C152.434 516.946 151.039 517.324 149.239 517.324C147.457 517.324 145.963 516.856 144.757 515.92L145.405 514.975C146.629 515.803 147.925 516.217 149.293 516.217C150.661 516.217 151.723 515.929 152.479 515.353C153.253 514.777 153.64 513.967 153.64 512.923C153.64 512.023 153.253 511.195 152.479 510.439C151.939 509.899 151.21 509.314 150.292 508.684C149.392 508.054 148.762 507.604 148.402 507.334C148.042 507.046 147.619 506.668 147.133 506.2C146.215 505.282 145.756 504.22 145.756 503.014C145.756 501.808 146.179 500.863 147.025 500.179C147.889 499.495 149.077 499.153 150.589 499.153C152.101 499.153 153.46 499.45 154.666 500.044L154.207 501.043C153.091 500.503 151.804 500.233 150.346 500.233ZM170.507 510.925L167.996 517H166.727L174.071 499.369H174.8L182.198 517H180.821L178.283 510.925H170.507ZM174.368 501.367C174.098 502.177 173.855 502.852 173.639 503.392L170.939 509.872H177.851L175.178 503.419C174.764 502.411 174.494 501.727 174.368 501.367ZM187.225 500.584H181.285V499.477H194.38V500.584H188.44V517H187.225V500.584ZM210.902 500.584H204.962V499.477H218.057V500.584H212.117V517H210.902V500.584ZM235.138 517V508.144H222.961V517H221.719V499.477H222.961V507.037H235.138V499.477H236.38V517H235.138ZM242.865 517V499.477H244.107V517H242.865ZM254.128 500.233C253.156 500.233 252.364 500.467 251.752 500.935C251.14 501.403 250.834 502.06 250.834 502.906C250.834 503.878 251.239 504.751 252.049 505.525C252.625 506.083 253.363 506.677 254.263 507.307C255.181 507.919 255.811 508.36 256.153 508.63C256.495 508.9 256.909 509.269 257.395 509.737C258.277 510.619 258.718 511.636 258.718 512.788C258.718 514.282 258.214 515.416 257.206 516.19C256.216 516.946 254.821 517.324 253.021 517.324C251.239 517.324 249.745 516.856 248.539 515.92L249.187 514.975C250.411 515.803 251.707 516.217 253.075 516.217C254.443 516.217 255.505 515.929 256.261 515.353C257.035 514.777 257.422 513.967 257.422 512.923C257.422 512.023 257.035 511.195 256.261 510.439C255.721 509.899 254.992 509.314 254.074 508.684C253.174 508.054 252.544 507.604 252.184 507.334C251.824 507.046 251.401 506.668 250.915 506.2C249.997 505.282 249.538 504.22 249.538 503.014C249.538 501.808 249.961 500.863 250.807 500.179C251.671 499.495 252.859 499.153 254.371 499.153C255.883 499.153 257.242 499.45 258.448 500.044L257.989 501.043C256.873 500.503 255.586 500.233 254.128 500.233ZM276.557 500.584H270.617V499.477H283.712V500.584H277.772V517H276.557V500.584ZM287.373 517V499.477H288.615V517H287.373ZM303.225 516.082H302.496L297.393 503.689C297.177 503.203 296.961 502.636 296.745 501.988C296.745 502.006 296.727 502.105 296.691 502.285C296.673 502.465 296.646 502.708 296.61 503.014C296.574 503.302 296.538 503.545 296.502 503.743L294.477 517H293.262L296.124 499.369H296.853L302.307 512.302C302.739 513.382 302.955 513.949 302.955 514.003C303.081 513.625 303.324 513.067 303.684 512.329L309.759 499.369H310.488L313.161 517H311.865L309.948 503.689C309.822 502.807 309.759 502.222 309.759 501.934L308.976 503.716L303.225 516.082ZM317.801 517V499.477H325.982V500.557H319.043V506.929H325.307V507.982H319.043V515.866H326.252V517H317.801ZM331.194 517.081C331.032 516.919 330.951 516.712 330.951 516.46C330.951 516.208 331.032 516.001 331.194 515.839C331.356 515.677 331.563 515.596 331.815 515.596C332.067 515.596 332.274 515.677 332.436 515.839C332.598 516.001 332.679 516.208 332.679 516.46C332.679 516.712 332.598 516.919 332.436 517.081C332.274 517.243 332.067 517.324 331.815 517.324C331.563 517.324 331.356 517.243 331.194 517.081ZM331.329 512.95L331.194 499.45H332.436L332.301 512.95H331.329Z" fill="black"/>
<g clip-path="url(#clip0_499_415)">
<path opacity="0.2" d="M309.131 168.866L304.799 168.852L288.184 168.801L284.494 168.794L273.302 168.765L270.537 168.75H269.31L211.595 168.592L210.678 168.584H209.804L206.296 168.57L196.389 168.548L191.609 168.534L181.688 168.505V24.815L304.076 14.0062L308.409 13.6233L309.131 168.866Z" fill="black"/>
<path d="M304.799 168.852V168.866L292.668 168.83L288.184 168.816L284.495 168.808L279.195 168.794L277.079 168.787L273.31 168.78L271.353 168.772H270.537L269.331 168.765H269.31L260.205 168.743L258.558 168.736L235.214 168.671L231.019 168.657L213.899 168.606L211.596 168.599H210.671C210.675 168.595 210.678 168.59 210.679 168.585H209.805L206.296 168.57L196.389 168.548V168.556L191.609 168.541L188.324 168.534H187.587L177.355 168.505V24.8152L304.077 13.6233V14.006L304.799 168.852Z" fill="#E6E6E6"/>
<path opacity="0.2" d="M240.896 11.0964C243.688 11.0964 245.951 8.83344 245.951 6.04197C245.951 3.25049 243.688 0.987549 240.896 0.987549C238.105 0.987549 235.842 3.25049 235.842 6.04197C235.842 8.83344 238.105 11.0964 240.896 11.0964Z" fill="black"/>
<path d="M238.008 11.0964C240.799 11.0964 243.062 8.83344 243.062 6.04197C243.062 3.25049 240.799 0.987549 238.008 0.987549C235.216 0.987549 232.953 3.25049 232.953 6.04197C232.953 8.83344 235.216 11.0964 238.008 11.0964Z" fill="#3F3D56"/>
<path opacity="0.2" d="M280.252 2.87518e-05L201.078 6.32581L201.538 12.0839L280.712 5.75816L280.252 2.87518e-05Z" fill="black"/>
<path d="M277.366 2.87518e-05L198.191 6.32581L198.651 12.0839L277.826 5.75816L277.366 2.87518e-05Z" fill="#E6E6E6"/>
<path opacity="0.56" d="M284.806 136.801C280.56 120.714 278.3 119.472 278.3 119.472L254.357 107.421L254.198 107.363L240.739 117.291L234.941 108.367L234.652 108.114C234.652 108.114 234.529 108.165 234.291 108.258C232.211 109.096 221.503 113.522 213.553 118.786L213.308 118.75L203.928 123.414L202.246 129.631L200.303 136.801L193.617 167.864V167.872L198.397 167.886V167.879L208.304 167.901L209.864 160.247L211.813 167.915H212.687C212.686 167.921 212.684 167.926 212.68 167.929H213.604L215.907 167.937L233.027 167.987L237.222 168.002L260.567 168.067L262.213 168.074L271.318 168.096H271.34L272.546 168.103V168.081L273.166 161.315L273.542 159.424L275.311 168.096L275.318 168.11L279.087 168.117L281.203 168.124L286.503 168.139L290.193 168.146V168.132C289.175 161.25 286.366 142.722 284.806 136.801Z" fill="#03A9F4"/>
<path opacity="0.56" d="M264.024 89.114L264.033 89.1463C264.023 89.1483 264.02 89.1373 264.024 89.114C263.929 88.7842 262.72 84.8911 259.258 86.8945C255.645 88.9853 251.328 75.8584 251.328 75.8584C251.328 75.8584 240.453 78.8519 233.814 78.3934C233.364 78.361 232.922 78.2547 232.506 78.0787C230.986 81.2261 230.477 84.7664 231.048 88.2144C231.619 91.6625 233.243 94.8496 235.696 97.3388L234.524 107.786L240.549 117.159L253.939 107.117C253.939 107.117 254.109 109.673 254.657 100.919C257.251 99.7601 259.512 97.9685 261.233 95.7083C262.954 93.4481 264.079 90.7917 264.506 87.9832C264.234 88.6006 264.045 89.0021 264.024 89.114Z" fill="#FFB8B8"/>
<path opacity="0.56" d="M264.505 88.6527C265.984 85.2879 269.949 75.3835 262.987 69.4158C257.227 64.4784 236.908 60.072 230.415 73.1804C230.168 73.6803 230.027 74.2254 229.999 74.7821C229.972 75.3387 230.058 75.8951 230.254 76.4169C230.45 76.9387 230.751 77.4148 231.138 77.8158C231.525 78.2167 231.99 78.5341 232.505 78.7482C232.599 78.5544 232.705 78.368 232.806 78.1784C233.131 78.2932 233.469 78.3654 233.813 78.3934C240.452 78.852 251.327 75.8585 251.327 75.8585C251.327 75.8585 255.644 88.9853 259.257 86.8946C262.719 84.8912 263.928 88.7843 264.023 89.1141C264.044 89.0022 264.234 88.6007 264.505 87.9832C264.614 87.2343 264.674 86.479 264.683 85.7222C264.686 85.8552 264.693 85.9874 264.693 86.1212C264.693 86.9685 264.631 87.8147 264.505 88.6527Z" fill="#2F2E41"/>
<path d="M136.197 440C197.61 440 247.395 432.241 247.395 422.671C247.395 413.1 197.61 405.341 136.197 405.341C74.7847 405.341 25 413.1 25 422.671C25 432.241 74.7847 440 136.197 440Z" fill="#E6E6E6"/>
<path d="M307.687 387.651L283.498 415.652L283.05 416.172L141.252 394.51V232.769H307.326L307.687 387.651Z" fill="#3F3D56"/>
<path d="M155.385 293.785L155.277 295.225L184.16 297.391L184.268 295.951L155.385 293.785Z" fill="#E6E6E6"/>
<path d="M226.146 300.283L226.043 301.723L256.369 303.89L256.472 302.45L226.146 300.283Z" fill="#E6E6E6"/>
<path d="M283.181 277.899L140.935 269.234L140.848 270.675L205.88 274.637L206.986 404.668L208.43 404.656L207.325 274.725L283.093 279.34L283.181 277.899Z" fill="#E6E6E6"/>
<path opacity="0.2" d="M307.687 387.651L283.498 415.652V232.769H307.326L307.687 387.651Z" fill="black"/>
<path d="M150.999 236.018H138.002V227.353L172.661 220.855L174.827 216.522L310.574 220.133V232.408L283.497 242.292L265.807 241.795C265.807 241.795 239.09 264.178 207.32 262.012C175.549 259.846 150.999 236.018 150.999 236.018Z" fill="#E6E6E6"/>
<path d="M269.056 227.714L261.475 233.13L240.239 232.617C240.239 232.624 240.232 232.617 240.232 232.617H240.196L238.578 232.581H238.571L237.228 232.545L232.989 232.444L232.636 232.437L228.888 232.35L228.751 232.343L224.094 232.234L223.79 232.227L220.346 232.141L219.79 232.133L215.747 232.032L214.447 232.003L207.176 231.83L205.342 231.787L186.019 231.325C186.019 231.325 172.25 232.011 171.6 228.01C171.585 227.912 171.578 227.813 171.578 227.714C171.578 225.44 173.975 224.956 176.243 225.014C177.59 225.063 178.93 225.242 180.243 225.548L185.788 225.685L189.247 225.765L200.099 226.032L209.378 226.256L212.663 226.342L217.364 226.458L219.227 226.501L226.144 226.667L229.379 226.747L236.21 226.913L269.056 227.714Z" fill="#CCCCCC"/>
<path d="M228.622 231.325C229.419 231.325 230.066 230.678 230.066 229.881C230.066 229.083 229.419 228.436 228.622 228.436C227.824 228.436 227.178 229.083 227.178 229.881C227.178 230.678 227.824 231.325 228.622 231.325Z" fill="#3F3D56"/>
<path d="M229.342 226.27C236.919 226.27 243.061 225.624 243.061 224.826C243.061 224.029 236.919 223.382 229.342 223.382C221.765 223.382 215.623 224.029 215.623 224.826C215.623 225.624 221.765 226.27 229.342 226.27Z" fill="#CCCCCC"/>
<path d="M220.756 206.472L232.728 209.39L231.36 215.003L214.185 210.816L214.284 210.408C214.621 209.028 215.492 207.838 216.705 207.1C217.919 206.362 219.376 206.136 220.756 206.472Z" fill="#3F3D56"/>
<path d="M216.236 211.001L222.663 211.967L222.631 212.175C222.526 212.877 222.146 213.509 221.574 213.931C221.003 214.353 220.288 214.531 219.585 214.425L218.455 214.255C217.753 214.15 217.121 213.77 216.699 213.198C216.277 212.627 216.1 211.912 216.205 211.209L216.236 211.001Z" fill="#3F3D56"/>
<path opacity="0.2" d="M231.361 213.558L222.382 211.37C222.113 211.918 221.677 212.366 221.137 212.65C220.597 212.934 219.98 213.039 219.377 212.95L218.663 212.842C217.96 212.735 217.322 212.373 216.871 211.823C216.421 211.274 216.189 210.578 216.221 209.868L214.691 209.495C214.469 209.913 214.299 210.357 214.186 210.816L216.221 211.312C216.189 212.022 216.421 212.718 216.871 213.268C217.322 213.817 217.96 214.18 218.663 214.287L219.377 214.394C219.98 214.483 220.597 214.378 221.137 214.094C221.677 213.81 222.113 213.362 222.382 212.814L231.361 215.002L232.729 209.39L232.396 209.309L231.361 213.558Z" fill="black"/>
<path d="M229.847 225.548C229.131 225.548 228.423 225.402 227.765 225.12C227.108 224.837 226.515 224.424 226.022 223.904C225.529 223.385 225.148 222.771 224.9 222.099C224.652 221.428 224.544 220.713 224.582 219.998L225.373 204.97L235.12 204.609V220.275C235.12 220.968 234.984 221.653 234.719 222.293C234.454 222.933 234.066 223.514 233.576 224.004C233.086 224.493 232.505 224.882 231.865 225.147C231.225 225.412 230.54 225.548 229.847 225.548Z" fill="#3F3D56"/>
<path d="M234.397 204.97H225.619C227.141 202.66 226.191 200.294 224.06 197.9C223.938 197.761 223.858 197.59 223.831 197.408C223.804 197.225 223.829 197.038 223.906 196.87C223.982 196.701 224.105 196.558 224.26 196.458C224.415 196.358 224.596 196.305 224.781 196.305H228.127C231.59 196.305 234.397 199.538 234.397 203.525V204.97Z" fill="#3F3D56"/>
<path opacity="0.2" d="M226.949 197.9C226.826 197.761 226.747 197.59 226.719 197.408C226.692 197.225 226.718 197.038 226.794 196.87C226.87 196.701 226.993 196.558 227.148 196.458C227.304 196.358 227.485 196.305 227.669 196.305H224.781C224.596 196.305 224.415 196.358 224.26 196.458C224.105 196.558 223.982 196.701 223.905 196.87C223.829 197.038 223.804 197.225 223.831 197.408C223.858 197.59 223.938 197.761 224.06 197.9C226.191 200.294 227.141 202.66 225.618 204.97H228.507C230.029 202.66 229.08 200.294 226.949 197.9Z" fill="black"/>
<path d="M185.288 213.481L196.393 217.406C196.393 217.406 222.808 219.513 219.38 226.232C215.953 232.951 193.345 228.61 193.345 228.61L182.639 221.176L185.288 213.481Z" fill="#FFB8B8"/>
<path d="M201.906 223.382C201.167 223.383 200.456 223.668 199.921 224.178C199.387 224.688 199.068 225.384 199.032 226.123C198.871 225.974 198.688 225.851 198.489 225.758C199.034 225.387 199.437 224.841 199.63 224.21C199.823 223.579 199.794 222.902 199.55 222.289C199.305 221.676 198.859 221.166 198.285 220.841C197.711 220.517 197.043 220.398 196.392 220.504C195.741 220.611 195.146 220.936 194.705 221.427C194.264 221.917 194.004 222.544 193.967 223.202C193.931 223.861 194.12 224.512 194.504 225.049C194.888 225.585 195.443 225.974 196.078 226.152C195.832 226.388 195.644 226.678 195.531 227C195.418 227.322 195.383 227.666 195.428 228.004C195.473 228.342 195.598 228.664 195.791 228.945C195.985 229.226 196.242 229.457 196.542 229.619C196.842 229.782 197.176 229.871 197.517 229.88C197.858 229.889 198.196 229.817 198.504 229.67C198.811 229.523 199.08 229.306 199.288 229.035C199.496 228.765 199.637 228.449 199.699 228.114C200.01 228.486 200.41 228.774 200.862 228.95C201.314 229.127 201.803 229.186 202.285 229.123C202.766 229.06 203.223 228.877 203.614 228.59C204.006 228.304 204.319 227.923 204.524 227.483C204.729 227.043 204.819 226.559 204.788 226.075C204.756 225.591 204.602 225.123 204.341 224.714C204.08 224.305 203.72 223.968 203.294 223.735C202.868 223.503 202.391 223.381 201.906 223.382Z" fill="white"/>
<path d="M206.958 224.826C206.219 224.827 205.509 225.112 204.974 225.622C204.439 226.132 204.121 226.829 204.085 227.567C203.924 227.418 203.74 227.295 203.542 227.202C204.087 226.831 204.49 226.285 204.682 225.654C204.875 225.023 204.847 224.346 204.603 223.733C204.358 223.121 203.912 222.61 203.338 222.285C202.763 221.961 202.096 221.842 201.445 221.948C200.794 222.055 200.199 222.38 199.758 222.871C199.317 223.362 199.057 223.988 199.02 224.646C198.984 225.305 199.173 225.956 199.557 226.493C199.94 227.029 200.496 227.419 201.131 227.596C200.884 227.832 200.697 228.122 200.584 228.444C200.471 228.766 200.435 229.11 200.481 229.448C200.526 229.786 200.65 230.109 200.844 230.389C201.038 230.67 201.295 230.901 201.595 231.064C201.895 231.226 202.229 231.315 202.57 231.324C202.91 231.333 203.249 231.261 203.556 231.114C203.864 230.967 204.133 230.75 204.341 230.479C204.548 230.209 204.689 229.893 204.752 229.558C205.063 229.93 205.463 230.218 205.915 230.394C206.367 230.571 206.856 230.63 207.337 230.567C207.818 230.504 208.276 230.321 208.667 230.035C209.059 229.748 209.371 229.367 209.576 228.927C209.781 228.487 209.872 228.003 209.84 227.519C209.808 227.035 209.655 226.567 209.394 226.158C209.133 225.749 208.772 225.412 208.347 225.18C207.921 224.947 207.444 224.825 206.958 224.826Z" fill="white"/>
<path d="M193.37 213.165L183.319 229.765L162.184 215.577L137.908 199.287L123.272 160.859L108.391 133.608L127.041 128.113C127.041 128.113 133.461 128.359 141.757 143.587C150.046 158.823 157.433 185.192 157.433 185.192L167.347 192.911L193.37 213.165Z" fill="#03A9F4"/>
<path opacity="0.2" d="M192.995 212.922L182.944 229.522L161.809 215.334L137.533 199.044L122.897 160.616L108.016 133.365L126.666 127.871C126.666 127.871 133.086 128.116 141.382 143.344C149.671 158.58 157.058 184.949 157.058 184.949L166.972 192.668L192.995 212.922Z" fill="black"/>
<path d="M240.195 232.617L214.447 232.003L212.403 229.686L210.959 228.047L209.378 226.256L207.623 224.27L210.612 219.635L212.035 217.425L217.797 221.209L221.884 223.888C221.884 223.888 225.306 225.028 229.379 226.747C233.162 228.35 237.516 230.458 240.195 232.617Z" fill="#FFB8B8"/>
<path d="M140.539 100.322C150.29 100.322 158.195 92.4167 158.195 82.6656C158.195 72.9145 150.29 65.0096 140.539 65.0096C130.788 65.0096 122.883 72.9145 122.883 82.6656C122.883 92.4167 130.788 100.322 140.539 100.322Z" fill="#FFB8B8"/>
<path d="M126.855 87.521L125.09 113.122L147.16 115.771C147.16 115.771 147.16 94.5834 148.925 91.935C150.691 89.2866 126.855 87.521 126.855 87.521Z" fill="#FFB8B8"/>
<path d="M175.849 120.626L147.262 108.52C147.262 108.52 133.606 97.9824 125.595 105.773L121.999 110.915C121.999 110.915 100.094 122.692 100.094 132.402L102.577 181.539C102.577 181.539 95.5148 208.906 106.108 210.671L163.49 215.968C163.49 215.968 171.435 206.257 164.373 193.898L167.021 164.766L175.849 120.626Z" fill="#03A9F4"/>
<path d="M156.428 121.509L175.849 120.626C175.849 120.626 177.272 122.128 181.686 138.901C186.1 155.674 191.74 183.304 191.74 183.304L219.956 219.05L206.236 232.769L169.411 192.333L164.373 151.524L156.428 121.509Z" fill="#03A9F4"/>
<path d="M166.139 214.202L102.669 208.618C102.669 208.618 96.3983 248.631 97.2811 264.522C98.1639 280.412 99.0467 305.13 99.0467 305.13L91.9844 412.832L119.351 409.301L122.882 320.138L134.359 271.584L147.601 333.38L156.429 412.832L180.264 410.183L172.319 313.958C172.319 313.958 179.381 227.444 166.139 214.202Z" fill="#2F2E41"/>
<path d="M174.966 405.769L182.912 408.418C182.912 408.418 199.685 404.004 195.271 415.48C190.857 426.957 178.498 425.191 178.498 425.191C178.498 425.191 163.49 436.667 157.311 427.839L160.842 409.301L174.966 405.769Z" fill="#2F2E41"/>
<path d="M110.523 405.769L118.468 408.418C118.468 408.418 135.241 404.004 130.827 415.48C126.414 426.957 114.054 425.191 114.054 425.191C114.054 425.191 99.0468 436.667 92.8672 427.839L96.3984 409.301L110.523 405.769Z" fill="#2F2E41"/>
<path d="M126.855 98.1145C126.855 98.1145 108.316 84.8725 118.027 68.9822C124.764 57.9583 138.723 58.8309 146.642 60.3994C148.775 60.7932 150.781 61.6998 152.486 63.0412C154.191 64.3827 155.544 66.1186 156.429 68.0994C157.753 71.1892 157.753 74.279 152.456 74.279C141.862 74.279 147.159 82.2241 147.159 82.2241C147.159 82.2241 140.097 83.9897 141.862 90.1693C143.628 96.3489 126.855 98.1145 126.855 98.1145Z" fill="#2F2E41"/>
<path d="M239.451 232.769C240.648 232.769 241.618 231.799 241.618 230.603C241.618 229.406 240.648 228.436 239.451 228.436C238.255 228.436 237.285 229.406 237.285 230.603C237.285 231.799 238.255 232.769 239.451 232.769Z" fill="white"/>
<path d="M237.285 229.158C237.286 228.727 237.19 228.302 237.003 227.913C236.817 227.524 236.546 227.182 236.209 226.913C235.695 226.499 235.056 226.272 234.397 226.27C234.36 226.27 234.332 226.277 234.295 226.277C234.15 225.699 233.828 225.18 233.374 224.793C232.92 224.405 232.357 224.169 231.763 224.115C231.169 224.062 230.573 224.195 230.058 224.496C229.542 224.797 229.133 225.25 228.887 225.794C228.43 225.553 227.9 225.487 227.397 225.606C226.894 225.725 226.451 226.023 226.151 226.443C224.025 226.173 221.943 225.629 219.955 224.826C219.413 224.826 218.882 224.979 218.423 225.267C217.965 225.556 217.597 225.969 217.363 226.458C217.166 226.847 217.065 227.278 217.067 227.714C217.07 228.234 217.214 228.744 217.486 229.187C216.97 229.26 216.498 229.516 216.155 229.908C215.813 230.301 215.624 230.804 215.623 231.325C215.623 231.566 215.664 231.805 215.746 232.032L219.789 232.133C219.845 232.001 219.887 231.863 219.912 231.722C220.042 231.876 220.187 232.016 220.345 232.141L223.79 232.227L223.985 232.076C224.016 232.131 224.053 232.184 224.093 232.234L228.75 232.343C228.779 232.311 228.805 232.277 228.829 232.242C228.846 232.279 228.865 232.315 228.887 232.35L232.635 232.437C232.785 232.189 232.883 231.914 232.924 231.628C232.944 231.643 232.965 231.655 232.989 231.664C232.966 231.79 232.954 231.918 232.952 232.047C232.953 232.18 232.966 232.313 232.989 232.444L237.227 232.545C237.265 232.381 237.284 232.214 237.285 232.047C237.282 231.565 237.119 231.098 236.823 230.718C237.124 230.254 237.285 229.712 237.285 229.158ZM229.552 229.101C229.428 229.251 229.284 229.385 229.126 229.498C229.169 229.606 229.191 229.722 229.227 229.83C229.409 229.636 229.627 229.479 229.869 229.368C229.757 229.287 229.651 229.197 229.552 229.101Z" fill="white"/>
<path d="M258.947 233.491C260.144 233.491 261.114 232.521 261.114 231.325C261.114 230.128 260.144 229.158 258.947 229.158C257.751 229.158 256.781 230.128 256.781 231.325C256.781 232.521 257.751 233.491 258.947 233.491Z" fill="white"/>
<path d="M256.781 229.881C256.782 229.449 256.686 229.024 256.499 228.635C256.313 228.246 256.042 227.904 255.705 227.635C255.192 227.221 254.552 226.994 253.893 226.992C253.857 226.992 253.828 227 253.792 227C253.646 226.421 253.324 225.902 252.87 225.515C252.416 225.127 251.853 224.891 251.259 224.838C250.665 224.784 250.069 224.917 249.554 225.218C249.038 225.519 248.629 225.972 248.383 226.516C247.926 226.275 247.396 226.209 246.893 226.328C246.39 226.448 245.948 226.745 245.647 227.166C243.521 226.895 241.439 226.351 239.452 225.548C238.909 225.548 238.378 225.701 237.92 225.989C237.461 226.278 237.093 226.691 236.859 227.18C236.662 227.569 236.561 228 236.563 228.436C236.566 228.957 236.711 229.466 236.982 229.909C236.466 229.982 235.994 230.238 235.652 230.63C235.309 231.023 235.12 231.526 235.119 232.047C235.119 232.288 235.16 232.527 235.242 232.754L239.285 232.855C239.341 232.723 239.383 232.585 239.408 232.444C239.538 232.598 239.683 232.738 239.841 232.863L243.286 232.949L243.481 232.798C243.513 232.853 243.549 232.907 243.589 232.957L248.246 233.065C248.275 233.033 248.301 232.999 248.326 232.964C248.342 233.001 248.361 233.038 248.383 233.072L252.131 233.159C252.281 232.912 252.379 232.636 252.42 232.35C252.44 232.365 252.462 232.377 252.485 232.386C252.462 232.512 252.45 232.64 252.449 232.769C252.449 232.902 252.462 233.035 252.485 233.166L256.723 233.267C256.761 233.104 256.78 232.937 256.781 232.769C256.778 232.287 256.616 231.82 256.319 231.44C256.62 230.976 256.781 230.434 256.781 229.881ZM249.048 229.823C248.924 229.973 248.781 230.107 248.622 230.22C248.665 230.328 248.687 230.444 248.723 230.552C248.905 230.358 249.123 230.201 249.365 230.09C249.253 230.009 249.147 229.92 249.048 229.823Z" fill="white"/>
<path d="M227.718 232.047C228.616 232.047 229.343 231.319 229.343 230.422C229.343 229.525 228.616 228.797 227.718 228.797C226.821 228.797 226.094 229.525 226.094 230.422C226.094 231.319 226.821 232.047 227.718 232.047Z" fill="white"/>
<path d="M226.094 229.339C226.095 229.016 226.023 228.696 225.883 228.405C225.743 228.113 225.54 227.857 225.287 227.655C224.902 227.344 224.423 227.174 223.928 227.173C223.901 227.173 223.879 227.178 223.852 227.178C223.743 226.744 223.501 226.355 223.161 226.065C222.821 225.774 222.398 225.597 221.953 225.557C221.507 225.517 221.06 225.617 220.674 225.842C220.287 226.068 219.98 226.408 219.796 226.815C219.453 226.635 219.056 226.585 218.678 226.675C218.301 226.764 217.969 226.987 217.743 227.303C216.149 227.1 214.587 226.692 213.097 226.09C212.69 226.089 212.292 226.204 211.948 226.421C211.604 226.637 211.328 226.947 211.153 227.314C211.005 227.606 210.929 227.929 210.931 228.256C210.933 228.646 211.041 229.028 211.245 229.361C210.858 229.415 210.504 229.607 210.247 229.901C209.99 230.196 209.849 230.573 209.848 230.964C209.847 231.145 209.879 231.324 209.94 231.494L212.972 231.57C213.014 231.471 213.045 231.367 213.064 231.261C213.162 231.377 213.271 231.482 213.389 231.576L215.973 231.641L216.119 231.527C216.143 231.569 216.17 231.608 216.2 231.646L219.693 231.727C219.714 231.703 219.734 231.678 219.753 231.651C219.765 231.68 219.779 231.707 219.796 231.733L222.607 231.798C222.719 231.612 222.793 231.406 222.823 231.191C222.838 231.202 222.855 231.211 222.872 231.218C222.855 231.313 222.846 231.409 222.845 231.505C222.845 231.605 222.855 231.705 222.872 231.803L226.051 231.879C226.079 231.756 226.094 231.631 226.094 231.505C226.092 231.144 225.97 230.793 225.747 230.509C225.973 230.16 226.094 229.754 226.094 229.339ZM220.294 229.296C220.201 229.409 220.094 229.509 219.975 229.594C220.007 229.675 220.023 229.761 220.05 229.843C220.187 229.697 220.351 229.579 220.532 229.496C220.448 229.435 220.369 229.368 220.294 229.296Z" fill="white"/>
<path d="M204.613 232.047C205.51 232.047 206.238 231.319 206.238 230.422C206.238 229.525 205.51 228.797 204.613 228.797C203.716 228.797 202.988 229.525 202.988 230.422C202.988 231.319 203.716 232.047 204.613 232.047Z" fill="white"/>
<path d="M202.989 229.339C202.989 229.016 202.917 228.696 202.777 228.405C202.638 228.113 202.434 227.857 202.182 227.655C201.797 227.344 201.317 227.174 200.822 227.173C200.795 227.173 200.774 227.178 200.747 227.178C200.637 226.744 200.396 226.355 200.055 226.065C199.715 225.774 199.293 225.597 198.847 225.557C198.402 225.517 197.955 225.617 197.568 225.842C197.182 226.068 196.875 226.408 196.69 226.815C196.347 226.635 195.95 226.585 195.573 226.675C195.196 226.764 194.863 226.987 194.638 227.303C193.043 227.1 191.482 226.692 189.991 226.09C189.585 226.089 189.187 226.204 188.842 226.421C188.498 226.637 188.223 226.947 188.047 227.314C187.9 227.606 187.824 227.929 187.825 228.256C187.827 228.646 187.936 229.028 188.139 229.361C187.753 229.415 187.398 229.607 187.142 229.901C186.885 230.196 186.743 230.573 186.742 230.964C186.742 231.145 186.773 231.324 186.834 231.494L189.867 231.57C189.909 231.471 189.94 231.367 189.959 231.261C190.056 231.377 190.165 231.482 190.284 231.576L192.867 231.641L193.013 231.527C193.037 231.569 193.064 231.608 193.094 231.646L196.587 231.727C196.609 231.703 196.629 231.678 196.647 231.651C196.659 231.68 196.674 231.707 196.69 231.733L199.501 231.798C199.614 231.612 199.687 231.406 199.718 231.191C199.733 231.202 199.749 231.211 199.766 231.218C199.749 231.313 199.74 231.409 199.739 231.505C199.74 231.605 199.749 231.705 199.766 231.803L202.945 231.879C202.974 231.756 202.988 231.631 202.989 231.505C202.986 231.144 202.865 230.793 202.642 230.509C202.868 230.16 202.988 229.754 202.989 229.339ZM197.189 229.296C197.096 229.409 196.988 229.509 196.869 229.594C196.902 229.675 196.918 229.761 196.945 229.843C197.082 229.697 197.245 229.579 197.427 229.496C197.343 229.435 197.263 229.368 197.189 229.296Z" fill="white"/>
<path d="M280.428 208.536V204.204H276.818V204.926C276.419 204.926 276.096 205.411 276.096 206.009C276.096 206.607 276.419 207.092 276.818 207.092V208.536H273.93V222.977H283.316V208.536H280.428Z" fill="#3F3D56"/>
</g>
<defs>
<clipPath id="clip0_499_415">
<rect width="285.575" height="440" fill="white" transform="translate(25)"/>
</clipPath>
</defs>
</svg>
