<svg width="121" height="148" viewBox="0 0 121 148" fill="none" xmlns="http://www.w3.org/2000/svg">
<path d="M21.602 140.591L21.62 141.356V146H21.188V139.511H21.386L25.625 144.398C25.913 144.74 26.135 145.013 26.291 145.217C26.267 144.929 26.255 144.599 26.255 144.227V139.565H26.687V146.054H26.489L22.169 141.077C21.869 140.735 21.677 140.507 21.593 140.393L21.602 140.591ZM31.538 146.09C30.704 146.09 30.005 145.799 29.441 145.217C28.877 144.635 28.595 143.924 28.595 143.084C28.595 142.238 28.877 141.524 29.441 140.942C30.005 140.36 30.704 140.069 31.538 140.069C32.372 140.069 33.071 140.36 33.635 140.942C34.199 141.524 34.481 142.238 34.481 143.084C34.481 143.924 34.199 144.635 33.635 145.217C33.071 145.799 32.372 146.09 31.538 146.09ZM31.538 140.438C30.818 140.438 30.218 140.693 29.738 141.203C29.264 141.713 29.027 142.34 29.027 143.084C29.027 143.822 29.264 144.446 29.738 144.956C30.218 145.46 30.818 145.712 31.538 145.712C32.264 145.712 32.864 145.46 33.338 144.956C33.812 144.446 34.049 143.822 34.049 143.084C34.049 142.34 33.812 141.713 33.338 141.203C32.864 140.693 32.264 140.438 31.538 140.438ZM40.8242 139.943H38.6462V139.565H43.4342V139.943H41.2562V146H40.8242V139.943ZM44.5029 146V140.186C45.0189 140.144 45.4569 140.123 45.8169 140.123C46.3689 140.123 46.8249 140.267 47.1849 140.555C47.5449 140.837 47.7249 141.242 47.7249 141.77C47.7249 142.124 47.6229 142.451 47.4189 142.751C47.2149 143.051 46.9839 143.294 46.7259 143.48C47.4399 144.428 47.8809 144.995 48.0489 145.181C48.3909 145.535 48.7629 145.736 49.1649 145.784L49.1559 146.063C48.8199 146.057 48.5469 146.009 48.3369 145.919C48.1269 145.823 47.9169 145.664 47.7069 145.442C47.5029 145.22 47.0499 144.623 46.3479 143.651C45.8619 143.651 45.3849 143.636 44.9169 143.606V146H44.5029ZM46.1229 143.309C46.3569 143.309 46.6089 143.153 46.8789 142.841C47.1489 142.529 47.2839 142.166 47.2839 141.752C47.2839 141.338 47.1429 141.023 46.8609 140.807C46.5789 140.591 46.2129 140.483 45.7629 140.483C45.5229 140.483 45.2409 140.495 44.9169 140.519V143.264C45.3489 143.294 45.7509 143.309 46.1229 143.309ZM50.4862 143.975L49.6492 146H49.2262L51.6742 140.123H51.9172L54.3832 146H53.9242L53.0782 143.975H50.4862ZM51.7732 140.789C51.6832 141.059 51.6022 141.284 51.5302 141.464L50.6302 143.624H52.9342L52.0432 141.473C51.9052 141.137 51.8152 140.909 51.7732 140.789ZM55.5683 146V140.123H55.7663L59.6003 144.533C59.7383 144.689 59.8643 144.845 59.9783 145.001C60.0983 145.151 60.1613 145.229 60.1673 145.235C60.1553 145.091 60.1493 144.809 60.1493 144.389V140.159H60.5633V146.036H60.3653L56.4593 141.554L55.9643 140.951C55.9763 141.071 55.9823 141.353 55.9823 141.797V146H55.5683ZM63.9016 140.411C63.5776 140.411 63.3136 140.489 63.1096 140.645C62.9056 140.801 62.8036 141.02 62.8036 141.302C62.8036 141.626 62.9386 141.917 63.2086 142.175C63.4006 142.361 63.6466 142.559 63.9466 142.769C64.2526 142.973 64.4626 143.12 64.5766 143.21C64.6906 143.3 64.8286 143.423 64.9906 143.579C65.2846 143.873 65.4316 144.212 65.4316 144.596C65.4316 145.094 65.2636 145.472 64.9276 145.73C64.5976 145.982 64.1326 146.108 63.5326 146.108C62.9386 146.108 62.4406 145.952 62.0386 145.64L62.2546 145.325C62.6626 145.601 63.0946 145.739 63.5506 145.739C64.0066 145.739 64.3606 145.643 64.6126 145.451C64.8706 145.259 64.9996 144.989 64.9996 144.641C64.9996 144.341 64.8706 144.065 64.6126 143.813C64.4326 143.633 64.1896 143.438 63.8836 143.228C63.5836 143.018 63.3736 142.868 63.2536 142.778C63.1336 142.682 62.9926 142.556 62.8306 142.4C62.5246 142.094 62.3716 141.74 62.3716 141.338C62.3716 140.936 62.5126 140.621 62.7946 140.393C63.0826 140.165 63.4786 140.051 63.9826 140.051C64.4866 140.051 64.9396 140.15 65.3416 140.348L65.1886 140.681C64.8166 140.501 64.3876 140.411 63.9016 140.411ZM67.3787 143.975L66.5417 146H66.1187L68.5667 140.123H68.8097L71.2757 146H70.8167L69.9707 143.975H67.3787ZM68.6657 140.789C68.5757 141.059 68.4947 141.284 68.4227 141.464L67.5227 143.624H69.8267L68.9357 141.473C68.7977 141.137 68.7077 140.909 68.6657 140.789ZM76.9004 145.712C76.4504 145.964 75.8234 146.09 75.0194 146.09C74.2214 146.09 73.5164 145.802 72.9044 145.226C72.2984 144.65 71.9954 143.936 71.9954 143.084C71.9954 142.226 72.2594 141.509 72.7874 140.933C73.3214 140.357 74.0084 140.069 74.8484 140.069C75.5264 140.069 76.1894 140.174 76.8374 140.384L76.7294 140.726C76.1054 140.534 75.4604 140.438 74.7944 140.438C74.1284 140.438 73.5674 140.693 73.1114 141.203C72.6614 141.707 72.4364 142.328 72.4364 143.066C72.4364 143.798 72.6974 144.422 73.2194 144.938C73.7474 145.454 74.3564 145.712 75.0464 145.712C75.7364 145.712 76.3094 145.616 76.7654 145.424L76.9004 145.712ZM79.4199 140.528H77.4399V140.159H81.8049V140.528H79.8249V146H79.4199V140.528ZM83.0253 146V140.159H83.4393V146H83.0253ZM88.1835 146.09C87.3495 146.09 86.6505 145.799 86.0865 145.217C85.5225 144.635 85.2405 143.924 85.2405 143.084C85.2405 142.238 85.5225 141.524 86.0865 140.942C86.6505 140.36 87.3495 140.069 88.1835 140.069C89.0175 140.069 89.7165 140.36 90.2805 140.942C90.8445 141.524 91.1265 142.238 91.1265 143.084C91.1265 143.924 90.8445 144.635 90.2805 145.217C89.7165 145.799 89.0175 146.09 88.1835 146.09ZM88.1835 140.438C87.4635 140.438 86.8635 140.693 86.3835 141.203C85.9095 141.713 85.6725 142.34 85.6725 143.084C85.6725 143.822 85.9095 144.446 86.3835 144.956C86.8635 145.46 87.4635 145.712 88.1835 145.712C88.9095 145.712 89.5095 145.46 89.9835 144.956C90.4575 144.446 90.6945 143.822 90.6945 143.084C90.6945 142.34 90.4575 141.713 89.9835 141.203C89.5095 140.693 88.9095 140.438 88.1835 140.438ZM92.9306 146V140.123H93.1286L96.9626 144.533C97.1006 144.689 97.2266 144.845 97.3406 145.001C97.4606 145.151 97.5236 145.229 97.5296 145.235C97.5176 145.091 97.5116 144.809 97.5116 144.389V140.159H97.9256V146.036H97.7276L93.8216 141.554L93.3266 140.951C93.3386 141.071 93.3446 141.353 93.3446 141.797V146H92.9306Z" fill="black"/>
<g clip-path="url(#clip0_495_311)">
<path d="M84.0219 26.9523C75.6341 25.6138 66.0823 24.8995 56.1347 24.8995C47.0309 24.8995 38.2599 25.4968 30.4102 26.6231C30.412 26.5025 30.4138 26.382 30.4191 26.2615C30.6272 19.2644 33.564 12.6263 38.6018 7.76596C43.6395 2.90561 50.3786 0.208591 57.3786 0.251355C64.3786 0.29412 71.0842 3.07327 76.0622 7.99482C81.0402 12.9164 83.8957 19.5898 84.0183 26.5889C84.0201 26.7113 84.0219 26.8318 84.0219 26.9523Z" fill="#29B2FE"/>
<g opacity="0.1">
<path d="M60.7307 0.241328C57.0077 -0.261551 53.2205 0.0234659 49.6146 1.07791C46.0088 2.13235 42.6648 3.93268 39.7992 6.36222C36.9337 8.79177 34.6106 11.7963 32.9806 15.1811C31.3506 18.5659 30.4499 22.2555 30.3371 26.0106C30.3316 26.1312 30.3299 26.2517 30.3281 26.3723C32.6602 26.0377 35.0752 25.7509 37.5545 25.5115C37.8577 19.2556 40.3416 13.3032 44.575 8.68729C48.8084 4.07138 54.5243 1.08322 60.7307 0.241328Z" fill="white"/>
</g>
<path d="M95.7484 29.079C91.8873 28.0323 87.9711 27.201 84.0177 26.5889C77.5381 25.5848 71.0058 24.9571 64.4536 24.7088C61.7242 24.5972 58.9445 24.5397 56.1342 24.5397C53.9068 24.5397 51.6974 24.5757 49.5186 24.6476C43.1272 24.8365 36.751 25.3752 30.4186 26.2615C25.731 26.907 21.0889 27.848 16.52 29.079C5.86707 32.0242 0 35.9716 0 40.1925C0 44.4133 5.86708 48.3607 16.52 51.306C24.0117 53.3786 33.2487 54.791 43.3133 55.4387C47.4676 55.7085 51.7622 55.8453 56.1342 55.8453C60.5205 55.8453 64.8296 55.7067 68.9965 55.4369C78.156 54.8449 86.6301 53.6197 93.7225 51.8385C93.7603 51.8277 93.7963 51.8187 93.834 51.8097C94.3126 51.691 94.784 51.5668 95.25 51.4427C95.4173 51.3959 95.5828 51.3509 95.7484 51.306C95.7577 51.3021 95.7673 51.2991 95.7771 51.297C95.9355 51.2538 96.092 51.2088 96.2485 51.1656C96.5616 51.0757 96.871 50.9875 97.1751 50.8957C97.1895 50.8921 97.202 50.8886 97.2147 50.885C97.4791 50.8058 97.7383 50.7266 97.9955 50.6475C98.206 50.5809 98.4147 50.5161 98.6216 50.4496C98.7728 50.401 98.9221 50.3524 99.0696 50.3038C99.1776 50.2678 99.2837 50.2337 99.3881 50.1977C99.5302 50.1509 99.6724 50.1023 99.8127 50.0537C99.8721 50.0339 99.9315 50.0141 99.989 49.9926C100.124 49.9476 100.255 49.9008 100.387 49.854C100.529 49.8036 100.671 49.7515 100.811 49.7011C100.928 49.6597 101.045 49.6165 101.16 49.5734C101.257 49.5356 101.353 49.4996 101.45 49.4636C101.714 49.3646 101.974 49.2621 102.229 49.1613C102.357 49.1092 102.484 49.0588 102.61 49.0066C102.734 48.9562 102.86 48.9041 102.983 48.8519C103.184 48.7673 103.382 48.6828 103.577 48.5982C103.67 48.555 103.766 48.5136 103.857 48.4741C103.927 48.4417 103.996 48.4111 104.066 48.3787C104.116 48.3571 104.167 48.3337 104.215 48.3103C104.397 48.2276 104.577 48.143 104.753 48.0585C105.43 47.7346 106.061 47.4036 106.648 47.0653C110.327 44.9585 112.268 42.6214 112.268 40.1925C112.268 35.9716 106.401 32.0242 95.7484 29.079ZM95.6512 50.9605C88.1505 53.035 78.8884 54.4473 68.7967 55.0896C64.6928 55.3505 60.4504 55.4854 56.1342 55.4854C51.8323 55.4854 47.6043 55.3523 43.513 55.0914C33.4052 54.4509 24.1287 53.0386 16.6171 50.9605C6.13335 48.0602 0.359834 44.237 0.359834 40.1925C0.36042 39.8351 0.405152 39.4792 0.493015 39.1328C1.41052 35.484 7.05455 32.0692 16.6171 29.4244C21.1515 28.203 25.758 27.2674 30.4096 26.6231C36.7802 25.7318 43.1949 25.1913 49.6247 25.0039C51.7694 24.9337 53.9392 24.8989 56.1342 24.8995C58.9067 24.8995 61.6486 24.9553 64.3438 25.0632C70.9342 25.3093 77.5045 25.9401 84.0214 26.9524C87.9405 27.5617 91.8231 28.387 95.6512 29.4244C105.212 32.0692 110.854 35.4822 111.774 39.1292C111.863 39.4766 111.908 39.8338 111.909 40.1925C111.909 44.237 106.135 48.0602 95.6512 50.9605Z" fill="#3F3D56"/>
<path d="M112.166 40.3562C112.166 42.7599 110.185 45.034 106.648 47.0653C106.06 47.4036 105.427 47.7346 104.754 48.0585C104.577 48.143 104.397 48.2276 104.216 48.3103C104.167 48.3337 104.117 48.3571 104.066 48.3787C103.996 48.4111 103.928 48.4417 103.858 48.4741C103.766 48.5136 103.671 48.555 103.577 48.5982C103.383 48.6828 103.185 48.7673 102.983 48.8519C102.861 48.9041 102.735 48.9562 102.611 49.0066C102.485 49.0588 102.357 49.1092 102.23 49.1613C101.974 49.2621 101.715 49.3646 101.45 49.4636C101.353 49.4996 101.258 49.5356 101.161 49.5733C101.046 49.6165 100.929 49.6597 100.812 49.7011C100.671 49.7515 100.529 49.8036 100.387 49.854C100.256 49.9008 100.124 49.9476 99.9895 49.9925C99.932 50.0142 99.8726 50.0339 99.8132 50.0537C99.6729 50.1023 99.5307 50.1509 99.3886 50.1977C99.2842 50.2336 99.1781 50.2678 99.0701 50.3038C98.9226 50.3524 98.7732 50.401 98.6221 50.4495C98.4152 50.5161 98.2065 50.5809 97.996 50.6475C97.7388 50.7266 97.4796 50.8058 97.2152 50.8849C97.2025 50.8885 97.19 50.8921 97.1756 50.8957C96.8715 50.9875 96.5621 51.0757 96.249 51.1656C96.0925 51.2088 95.936 51.2538 95.7776 51.2969C95.7678 51.2991 95.7582 51.3021 95.7489 51.3059C95.5833 51.3509 95.4178 51.3959 95.2505 51.4427C94.7863 51.565 94.3131 51.6892 93.8345 51.8097C93.7968 51.8187 93.7607 51.8277 93.723 51.8385C86.8231 53.5621 78.358 54.8179 68.9898 55.4243C64.8859 55.6887 60.6074 55.8291 56.2121 55.8291C51.7771 55.8291 47.4626 55.6869 43.3264 55.4171C18.6345 53.8068 0.257812 47.6752 0.257812 40.3562C0.259757 39.9108 0.32764 39.4682 0.459253 39.0428C0.470059 39.0734 0.480863 39.1022 0.493515 39.1327C3.06085 45.876 21.2812 51.3257 44.9223 52.6553C48.544 52.8604 52.2953 52.9666 56.1347 52.9666C59.9903 52.9666 63.756 52.8586 67.3921 52.6535C91.0134 51.3185 109.216 45.867 111.774 39.1291C111.817 39.0212 111.855 38.9132 111.887 38.8053C112.07 39.3021 112.164 39.8269 112.166 40.3562Z" fill="#3F3D56"/>
<path d="M16.4931 38.4195C13.4988 38.4195 10.3164 37.7753 10.3164 36.5813C10.3164 35.3874 13.4988 34.7432 16.4931 34.7432C19.4874 34.7432 22.6698 35.3874 22.6698 36.5813C22.6698 37.7753 19.4874 38.4195 16.4931 38.4195ZM16.4931 35.103C13.0651 35.103 10.6762 35.8821 10.6762 36.5813C10.6762 37.2805 13.0651 38.0597 16.4931 38.0597C19.921 38.0597 22.3099 37.2805 22.3099 36.5813C22.3099 35.8821 19.921 35.103 16.4931 35.103Z" fill="#3F3D56"/>
<path d="M29.2665 46.8756C26.2722 46.8756 23.0898 46.2314 23.0898 45.0374C23.0898 43.8434 26.2722 43.1992 29.2665 43.1992C32.2608 43.1992 35.4432 43.8434 35.4432 45.0374C35.4432 46.2314 32.2608 46.8756 29.2665 46.8756ZM29.2665 43.5591C25.8386 43.5591 23.4497 44.3382 23.4497 45.0374C23.4497 45.7366 25.8386 46.5157 29.2665 46.5157C32.6944 46.5157 35.0834 45.7366 35.0834 45.0374C35.0834 44.3382 32.6945 43.5591 29.2665 43.5591Z" fill="#3F3D56"/>
<path d="M95.6571 38.4195C92.6628 38.4195 89.4805 37.7753 89.4805 36.5813C89.4805 35.3874 92.6628 34.7432 95.6571 34.7432C98.6515 34.7432 101.834 35.3874 101.834 36.5813C101.834 37.7753 98.6515 38.4195 95.6571 38.4195ZM95.6571 35.103C92.2292 35.103 89.8403 35.8821 89.8403 36.5813C89.8403 37.2805 92.2292 38.0597 95.6571 38.0597C99.0851 38.0597 101.474 37.2805 101.474 36.5813C101.474 35.8821 99.0851 35.103 95.6571 35.103Z" fill="#3F3D56"/>
<path d="M82.8817 46.8756C79.8875 46.8756 76.7051 46.2314 76.7051 45.0374C76.7051 43.8434 79.8875 43.1992 82.8817 43.1992C85.8761 43.1992 89.0584 43.8434 89.0584 45.0374C89.0584 46.2314 85.8761 46.8756 82.8817 46.8756ZM82.8817 43.5591C79.4538 43.5591 77.0649 44.3382 77.0649 45.0374C77.0649 45.7366 79.4538 46.5157 82.8817 46.5157C86.3097 46.5157 88.6986 45.7366 88.6986 45.0374C88.6986 44.3382 86.3097 43.5591 82.8817 43.5591Z" fill="#3F3D56"/>
<path d="M56.0751 50.8338C53.0808 50.8338 49.8984 50.1896 49.8984 48.9956C49.8984 47.8017 53.0808 47.1575 56.0751 47.1575C59.0694 47.1575 62.2518 47.8017 62.2518 48.9956C62.2518 50.1896 59.0694 50.8338 56.0751 50.8338ZM56.0751 47.5173C52.6471 47.5173 50.2583 48.2964 50.2583 48.9956C50.2583 49.6948 52.6471 50.474 56.0751 50.474C59.5031 50.474 61.892 49.6948 61.892 48.9956C61.892 48.2964 59.5031 47.5173 56.0751 47.5173Z" fill="#3F3D56"/>
<path d="M60.6291 88.6482C64.8036 88.6482 68.1878 85.2641 68.1878 81.0895C68.1878 76.9149 64.8036 73.5308 60.6291 73.5308C56.4545 73.5308 53.0703 76.9149 53.0703 81.0895C53.0703 85.2641 56.4545 88.6482 60.6291 88.6482Z" fill="#2F2E41"/>
<path d="M57.753 86.0556L54.0742 87.8978L55.1025 89.9511L58.7812 88.1088L57.753 86.0556Z" fill="#2F2E41"/>
<path d="M55.5882 89.7427C55.8064 89.4119 55.268 88.672 54.3857 88.0903C53.5033 87.5085 52.6112 87.3051 52.3931 87.636C52.1749 87.9669 52.7133 88.7067 53.5956 89.2885C54.478 89.8702 55.3701 90.0736 55.5882 89.7427Z" fill="#2F2E41"/>
<path d="M63.5029 86.0556L62.4746 88.1089L66.1534 89.9512L67.1816 87.8979L63.5029 86.0556Z" fill="#2F2E41"/>
<path d="M67.6611 89.2885C68.5434 88.7067 69.0818 87.9669 68.8636 87.636C68.6455 87.3052 67.7534 87.5085 66.871 88.0903C65.9887 88.6721 65.4503 89.4119 65.6685 89.7428C65.8866 90.0736 66.7787 89.8703 67.6611 89.2885Z" fill="#2F2E41"/>
<path d="M60.099 81.824C61.5257 81.824 62.6824 80.6673 62.6824 79.2406C62.6824 77.8138 61.5257 76.6572 60.099 76.6572C58.6722 76.6572 57.5156 77.8138 57.5156 79.2406C57.5156 80.6673 58.6722 81.824 60.099 81.824Z" fill="white"/>
<path d="M60.7281 78.7453C61.063 78.4104 61.061 77.8656 60.7238 77.5283C60.3865 77.191 59.8416 77.1891 59.5068 77.524C59.1719 77.8589 59.1738 78.4038 59.511 78.741C59.8483 79.0783 60.3932 79.0802 60.7281 78.7453Z" fill="#3F3D56"/>
<path d="M66.5901 72.8664C66.7037 70.068 64.292 67.6978 61.2032 67.5723C58.1144 67.4469 55.5184 69.6137 55.4047 72.412C55.291 75.2104 57.4381 75.8462 60.5269 75.9717C63.6156 76.0971 66.4764 75.6647 66.5901 72.8664Z" fill="#29B2FE"/>
<path d="M70.9488 85.0475C71.446 84.6207 70.7469 82.9908 69.3873 81.4071C68.0276 79.8233 66.5224 78.8854 66.0252 79.3123C65.5281 79.7391 66.2272 81.369 67.5868 82.9527C68.9464 84.5365 70.4516 85.4743 70.9488 85.0475Z" fill="#2F2E41"/>
<path d="M53.6919 82.9527C55.0515 81.3689 55.7507 79.7391 55.2535 79.3122C54.7563 78.8854 53.2511 79.8233 51.8915 81.407C50.5319 82.9908 49.8327 84.6207 50.3299 85.0475C50.8271 85.4743 52.3323 84.5364 53.6919 82.9527Z" fill="#2F2E41"/>
<path d="M62.7032 84.0683C62.785 84.5177 62.6849 84.9811 62.425 85.3567C62.1651 85.7323 61.7666 85.9893 61.3172 86.0711C60.8679 86.1529 60.4044 86.0529 60.0288 85.793C59.6532 85.533 59.3962 85.1346 59.3144 84.6852L59.3138 84.6818C59.1443 83.7459 59.868 83.4147 60.804 83.2453C61.7399 83.0758 62.5338 83.1323 62.7032 84.0683Z" fill="white"/>
<path d="M47.8579 89.13C47.7624 89.13 47.6709 89.092 47.6034 89.0246C47.536 88.9571 47.4981 88.8656 47.498 88.7701V67.5399C47.498 67.4445 47.536 67.3529 47.6034 67.2854C47.6709 67.218 47.7624 67.1801 47.8579 67.1801C47.9533 67.1801 48.0448 67.218 48.1123 67.2854C48.1798 67.3529 48.2177 67.4445 48.2177 67.5399V88.7701C48.2177 88.8656 48.1798 88.9571 48.1123 89.0246C48.0448 89.092 47.9533 89.13 47.8579 89.13Z" fill="#CCCCCC"/>
<path d="M42.4614 108.201C42.366 108.201 42.2744 108.163 42.207 108.096C42.1395 108.028 42.1016 107.937 42.1016 107.841V92.3684C42.1016 92.2729 42.1395 92.1814 42.207 92.1139C42.2744 92.0465 42.366 92.0085 42.4614 92.0085C42.5568 92.0085 42.6484 92.0465 42.7158 92.1139C42.7833 92.1814 42.8212 92.2729 42.8212 92.3684V107.841C42.8212 107.937 42.7833 108.028 42.7158 108.096C42.6484 108.163 42.5568 108.201 42.4614 108.201Z" fill="#CCCCCC"/>
<path d="M56.3149 95.427C56.2195 95.427 56.128 95.389 56.0605 95.3216C55.993 95.2541 55.9551 95.1626 55.9551 95.0671V73.8369C55.9551 73.7415 55.993 73.6499 56.0605 73.5824C56.1279 73.515 56.2195 73.4771 56.3149 73.4771C56.4103 73.4771 56.5019 73.515 56.5693 73.5824C56.6368 73.6499 56.6747 73.7415 56.6747 73.8369V95.0671C56.6747 95.1626 56.6368 95.2541 56.5693 95.3216C56.5019 95.389 56.4103 95.427 56.3149 95.427Z" fill="#CCCCCC"/>
<path d="M51.0962 110.72C51.0007 110.72 50.9092 110.682 50.8417 110.615C50.7742 110.547 50.7363 110.456 50.7363 110.36V101.724C50.7363 101.629 50.7742 101.537 50.8417 101.47C50.9092 101.402 51.0007 101.364 51.0962 101.364C51.1916 101.364 51.2831 101.402 51.3506 101.47C51.4181 101.537 51.456 101.629 51.456 101.724V110.36C51.456 110.456 51.4181 110.547 51.3506 110.615C51.2831 110.682 51.1916 110.72 51.0962 110.72Z" fill="#CCCCCC"/>
<path d="M58.4731 66.4603C58.3777 66.4603 58.2862 66.4224 58.2187 66.3549C58.1512 66.2874 58.1133 66.1959 58.1133 66.1005V57.4644C58.1133 57.369 58.1512 57.2775 58.2187 57.21C58.2862 57.1425 58.3777 57.1046 58.4731 57.1046C58.5685 57.1046 58.6601 57.1425 58.7276 57.21C58.795 57.2775 58.833 57.369 58.833 57.4644V66.1005C58.8329 66.1959 58.795 66.2874 58.7276 66.3549C58.6601 66.4224 58.5685 66.4603 58.4731 66.4603Z" fill="#CCCCCC"/>
<path d="M40.4809 70.2386C40.3855 70.2386 40.294 70.2007 40.2265 70.1332C40.159 70.0658 40.1211 69.9742 40.1211 69.8788V61.2428C40.1211 61.1473 40.159 61.0558 40.2265 60.9883C40.294 60.9208 40.3855 60.8829 40.4809 60.8829C40.5764 60.8829 40.6679 60.9208 40.7354 60.9883C40.8029 61.0558 40.8408 61.1473 40.8408 61.2428V69.8788C40.8408 69.9742 40.8028 70.0658 40.7354 70.1332C40.6679 70.2007 40.5764 70.2386 40.4809 70.2386Z" fill="#CCCCCC"/>
<path d="M71.7876 71.1382C71.6921 71.1382 71.6006 71.1002 71.5331 71.0328C71.4657 70.9653 71.4277 70.8738 71.4277 70.7783V62.1423C71.4277 62.0469 71.4656 61.9553 71.5331 61.8879C71.6006 61.8204 71.6921 61.7825 71.7876 61.7825C71.883 61.7825 71.9745 61.8204 72.042 61.8879C72.1095 61.9553 72.1474 62.0469 72.1474 62.1423V70.7783C72.1474 70.8738 72.1095 70.9653 72.042 71.0328C71.9745 71.1002 71.883 71.1382 71.7876 71.1382Z" fill="#CCCCCC"/>
<path d="M71.0669 98.1258C70.9714 98.1258 70.8799 98.0879 70.8124 98.0204C70.7449 97.9529 70.707 97.8614 70.707 97.766V87.3308C70.707 87.2353 70.7449 87.1438 70.8124 87.0763C70.8799 87.0089 70.9714 86.9709 71.0669 86.9709C71.1623 86.9709 71.2538 87.0089 71.3213 87.0763C71.3888 87.1438 71.4267 87.2353 71.4267 87.3308V97.766C71.4267 97.8614 71.3888 97.9529 71.3213 98.0204C71.2538 98.0879 71.1623 98.1258 71.0669 98.1258Z" fill="#CCCCCC"/>
<path d="M63.8716 107.302C63.7761 107.302 63.6846 107.264 63.6171 107.196C63.5496 107.129 63.5117 107.037 63.5117 106.942V91.4688C63.5117 91.3734 63.5496 91.2819 63.6171 91.2144C63.6846 91.1469 63.7761 91.109 63.8716 91.109C63.967 91.109 64.0585 91.1469 64.126 91.2144C64.1935 91.2819 64.2314 91.3734 64.2314 91.4688V106.942C64.2314 107.037 64.1935 107.129 64.126 107.196C64.0585 107.264 63.967 107.302 63.8716 107.302Z" fill="#CCCCCC"/>
<path d="M65.3091 80.8537C65.2136 80.8537 65.1221 80.8158 65.0546 80.7483C64.9871 80.6808 64.9492 80.5893 64.9492 80.4939V59.2636C64.9492 59.1682 64.9871 59.0767 65.0546 59.0092C65.1221 58.9417 65.2136 58.9038 65.3091 58.9038C65.4045 58.9038 65.496 58.9417 65.5635 59.0092C65.631 59.0767 65.6689 59.1682 65.6689 59.2636V80.4939C65.6689 80.5893 65.631 80.6808 65.5635 80.7483C65.496 80.8158 65.4045 80.8537 65.3091 80.8537Z" fill="#CCCCCC"/>
<path d="M109.424 126.03C109.939 125.599 109.243 123.92 107.87 122.279C106.496 120.638 104.965 119.658 104.45 120.089C103.935 120.521 104.631 122.2 106.005 123.841C107.378 125.481 108.909 126.462 109.424 126.03Z" fill="#2F2E41"/>
<path d="M106.047 124.165C107.4 120.105 105.206 115.717 101.146 114.363C97.0863 113.01 92.6981 115.204 91.3448 119.264C89.9916 123.324 92.1857 127.712 96.2455 129.065C100.305 130.419 104.693 128.224 106.047 124.165Z" fill="#2F2E41"/>
<path d="M101.975 127.796H99.6211V132.013H101.975V127.796Z" fill="#2F2E41"/>
<path d="M97.2681 127.796H94.9141V132.013H97.2681V127.796Z" fill="#2F2E41"/>
<path d="M100.014 132.798C101.098 132.798 101.976 132.468 101.976 132.062C101.976 131.656 101.098 131.327 100.014 131.327C98.931 131.327 98.0527 131.656 98.0527 132.062C98.0527 132.468 98.931 132.798 100.014 132.798Z" fill="#2F2E41"/>
<path d="M95.3054 132.7C96.3888 132.7 97.2671 132.37 97.2671 131.964C97.2671 131.558 96.3888 131.229 95.3054 131.229C94.222 131.229 93.3438 131.558 93.3438 131.964C93.3438 132.37 94.222 132.7 95.3054 132.7Z" fill="#2F2E41"/>
<path d="M96.2619 111.974C96.9538 109.188 100.008 107.548 103.083 108.312C106.159 109.076 108.091 111.953 107.399 114.74C106.708 117.526 104.412 117.535 101.337 116.772C98.261 116.008 95.57 114.761 96.2619 111.974Z" fill="#CCCCCC"/>
<path d="M93.4695 119.779C93.7574 119.172 92.4235 117.937 90.4902 117.02C88.5569 116.103 86.7563 115.852 86.4685 116.459C86.1806 117.066 87.5145 118.301 89.4478 119.218C91.3811 120.135 93.1817 120.386 93.4695 119.779Z" fill="#2F2E41"/>
<path d="M97.5365 122.663C98.9632 122.663 100.12 121.506 100.12 120.079C100.12 118.653 98.9632 117.496 97.5365 117.496C96.1097 117.496 94.9531 118.653 94.9531 120.079C94.9531 121.506 96.1097 122.663 97.5365 122.663Z" fill="white"/>
<path d="M96.4764 120.015C96.9519 120.015 97.3375 119.629 97.3375 119.153C97.3375 118.678 96.9519 118.292 96.4764 118.292C96.0008 118.292 95.6152 118.678 95.6152 119.153C95.6152 119.629 96.0008 120.015 96.4764 120.015Z" fill="#3F3D56"/>
<path d="M97.5151 126.553C98.1112 126.553 98.5946 126.069 98.5946 125.473C98.5946 124.877 98.1112 124.394 97.5151 124.394C96.9189 124.394 96.4355 124.877 96.4355 125.473C96.4355 126.069 96.9189 126.553 97.5151 126.553Z" fill="white"/>
<path d="M120.82 132.85H78.3596C78.3119 132.85 78.2661 132.831 78.2324 132.797C78.1986 132.763 78.1797 132.718 78.1797 132.67C78.1797 132.622 78.1986 132.576 78.2324 132.543C78.2661 132.509 78.3119 132.49 78.3596 132.49H120.82C120.868 132.49 120.914 132.509 120.947 132.543C120.981 132.576 121 132.622 121 132.67C121 132.718 120.981 132.763 120.947 132.797C120.914 132.831 120.868 132.85 120.82 132.85Z" fill="#3F3D56"/>
</g>
<defs>
<clipPath id="clip0_495_311">
<rect width="121" height="132.85" fill="white"/>
</clipPath>
</defs>
</svg>
