<svg width="57" height="71" viewBox="0 0 57 71" fill="none" xmlns="http://www.w3.org/2000/svg">
<path d="M2.64067 15.681H14.6672V13.3169C14.6672 9.65324 16.2188 6.32298 18.7152 3.91104C21.2116 1.49909 24.6571 0 28.4505 0C32.2425 0 35.6908 1.49909 38.1872 3.91104C40.6836 6.32298 42.2337 9.65324 42.2337 13.3169V15.681H54.3593C55.0877 15.681 55.7468 15.9721 56.2221 16.4313L56.3508 16.5707C56.7553 17.0216 57 17.6079 57 18.2324V60.8671C57 63.3801 55.9321 65.6705 54.2136 67.3294C52.4966 68.9884 50.1261 70.0215 47.525 70.0215H9.4736C6.87819 70.0215 4.50625 68.9884 2.78635 67.3267C1.06787 65.6732 0 63.3842 0 60.8671V18.2324C0 17.53 0.298437 16.8891 0.775087 16.4299C1.25032 15.9694 1.91367 15.681 2.64067 15.681ZM18.9797 47.8822C18.2315 47.2468 18.1594 46.144 18.8171 45.4211C19.4748 44.6982 20.6162 44.6285 21.3644 45.2639L25.7745 49.0164L35.514 38.9833C36.1957 38.2836 37.3371 38.2495 38.0613 38.9081C38.7869 39.5668 38.8222 40.6696 38.1405 41.3706L27.2468 52.5927C26.5892 53.3156 25.4477 53.3853 24.6995 52.7498L18.9797 47.8822ZM18.0278 15.681H38.8731V13.3169C38.8731 10.5497 37.7006 8.03116 35.811 6.20682C33.9214 4.38113 31.3146 3.2469 28.4505 3.2469C25.5864 3.2469 22.9796 4.38113 21.0914 6.20682C19.2018 8.03116 18.0278 10.5497 18.0278 13.3169V15.681ZM14.6672 21.9794V18.9307H3.36342V60.8671C3.36342 62.4878 4.05365 63.9623 5.16112 65.0323C6.26576 66.1077 7.79471 66.7705 9.4736 66.7705H47.525C49.1982 66.7705 50.7272 66.1023 51.8361 65.0323C52.9449 63.9609 53.6366 62.4837 53.6366 60.8671V18.9307H42.2337V22.0136C43.4812 22.6258 44.3355 23.8776 44.3355 25.322C44.3355 27.3704 42.617 29.0321 40.4955 29.0321C38.3753 29.0321 36.6554 27.3704 36.6554 25.322C36.6554 23.8325 37.5634 22.5493 38.8731 21.9576V18.9307H18.0278V21.9917C19.2994 22.5957 20.1749 23.8598 20.1749 25.322C20.1749 27.3704 18.4564 29.0321 16.3362 29.0321C14.2146 29.0321 12.4962 27.3704 12.4962 25.322C12.4962 23.8502 13.3816 22.5793 14.6672 21.9794Z" fill="#006ACB"/>
</svg>
