<svg width="61" height="67" viewBox="0 0 61 67" fill="none" xmlns="http://www.w3.org/2000/svg">
<path fill-rule="evenodd" clip-rule="evenodd" d="M42.0256 32.2706H57.2468C59.31 32.2706 61 33.9498 61 35.9998V51.2872C61 53.3372 59.31 55.0164 57.2468 55.0164H42.0256C35.7319 55.0164 30.5796 49.897 30.5796 43.6435C30.5796 37.39 35.7265 32.2706 42.0256 32.2706ZM6.02483 14.3116H15.737C15.7205 14.039 15.7095 13.7664 15.7095 13.4883C15.715 6.04085 21.7892 0 29.2901 0C36.7855 0 42.8652 6.04085 42.8652 13.4883C42.8652 13.7609 42.8542 14.0335 42.8432 14.3061L46.4153 14.3007C50.0642 14.2952 53.0492 17.1357 53.0492 20.7613V21.8408C54.849 23.0239 56.0397 25.0521 56.0397 27.3419V29.719H51.8256V28.1325C51.8256 26.426 50.4209 25.0357 48.7089 25.0357H9.94261V21.5846C9.94261 21.1266 10.3212 20.7504 10.7821 20.7504H17.8495C17.3831 20.0308 16.988 19.262 16.6643 18.4551H6.96312C5.75596 18.4551 4.77377 19.4365 4.77377 20.6305V60.234C4.77377 61.4335 5.76145 62.4094 6.96312 62.4094H49.6033C50.8105 62.4094 51.7927 61.428 51.7927 60.234V57.7425H56.1165V61.8587H56.1055C56.0891 64.7047 53.0327 67 50.0148 67H6.00837C2.70514 66.9945 0 64.3067 0 61.0246V20.2979C0 17.0049 2.71062 14.3116 6.02483 14.3116ZM41.9159 18.4497C41.5922 19.2566 41.1971 20.0253 40.7307 20.745H49.4003C49.6417 20.745 49.8777 20.7559 50.1136 20.7831V20.625C50.1136 19.4256 49.1259 18.4497 47.9243 18.4497H41.9159ZM30.1955 20.7504V19.4856C30.8923 19.4583 31.4849 19.3656 31.9678 19.213C32.4507 19.0548 32.9061 18.8095 33.3396 18.466C33.7676 18.1171 34.1187 17.6918 34.3986 17.1739C34.6729 16.6614 34.8101 16.0944 34.8101 15.4783C34.8101 14.4261 34.426 13.5592 33.6578 12.8722C33.0762 12.3652 31.9239 11.88 30.1955 11.422V8.96859C30.4918 9.1267 30.7003 9.27936 30.832 9.43201C30.9582 9.58467 31.1008 9.86272 31.2655 10.2607L34.448 9.76459C34.2449 8.85955 33.8005 8.15079 33.1311 7.63284C32.4562 7.10945 31.4794 6.81504 30.201 6.73326V5.8991H28.9609V6.73326C27.5617 6.80413 26.5081 7.18032 25.7948 7.86183C25.087 8.53788 24.7303 9.37749 24.7303 10.3861C24.7303 11.1221 24.9059 11.7437 25.2626 12.2562C25.6192 12.7687 26.0308 13.1394 26.5136 13.3738C26.9965 13.6028 27.8086 13.8809 28.9609 14.1971V17.1957C28.5603 17.0049 28.275 16.7868 28.0994 16.5415C27.9238 16.2961 27.7866 15.8927 27.6824 15.3366L24.242 15.7346C24.3462 16.2961 24.4999 16.7759 24.7029 17.1739C24.9059 17.5719 25.2022 17.9426 25.5753 18.2807C25.9539 18.6241 26.4039 18.8967 26.9252 19.0876C27.4464 19.2838 28.1268 19.4147 28.9609 19.4856V20.7504H30.1955ZM28.9554 8.92497C28.5878 9.04492 28.3353 9.19212 28.1927 9.36659C28.05 9.54105 27.9787 9.74823 27.9787 9.98812C27.9787 10.2335 28.05 10.4515 28.1982 10.6315C28.3463 10.8168 28.5987 10.9695 28.9609 11.0949V8.92497H28.9554ZM30.1955 17.2775C30.6783 17.1684 31.0295 16.9885 31.2545 16.7432C31.4794 16.4978 31.5947 16.2198 31.5947 15.9145C31.5947 15.6473 31.4959 15.402 31.3093 15.1785C31.1173 14.9549 30.7497 14.7477 30.1955 14.5569V17.2775ZM42.6018 36.4414H56.1055V50.8565H42.6018C38.6127 50.8565 35.3478 47.6126 35.3478 43.649C35.3478 39.6799 38.6127 36.4414 42.6018 36.4414ZM45.9215 41.261C47.2878 41.261 48.3962 42.3623 48.3962 43.7198C48.3962 45.0774 47.2878 46.1787 45.9215 46.1787C44.5552 46.1787 43.4468 45.0774 43.4468 43.7198C43.4468 42.3623 44.5552 41.261 45.9215 41.261Z" fill="#29B2FE"/>
</svg>
