<svg width="61" height="64" viewBox="0 0 61 64" fill="none" xmlns="http://www.w3.org/2000/svg">
<path fill-rule="evenodd" clip-rule="evenodd" d="M44.2531 7.72459L22.4852 20.9809H28.6756L44.7468 11.1936L47.1066 9.756L53.9104 20.9809H57.871C58.7338 20.9809 59.5135 21.3351 60.08 21.8976C60.6466 22.4654 61 23.2467 61 24.1061V60.8747C61 61.7342 60.6466 62.5155 60.0852 63.078V63.0833C59.5187 63.651 58.739 64 57.8762 64H3.129C2.26619 64 1.48654 63.651 0.91999 63.0833V63.078C0.353442 62.5155 0 61.7342 0 60.8799V24.1061C0 23.2467 0.353442 22.4602 0.914792 21.8976C1.48134 21.3299 2.26099 20.9809 3.12381 20.9809H4.42323L38.2186 0.401074C38.65 0.140636 39.1385 0 39.6427 0C39.861 0 40.0793 0.0260438 40.2924 0.0781314C40.9993 0.25002 41.6126 0.697973 41.9869 1.32302L45.4329 7.00578L44.2531 7.72459ZM3.06143 23.7623C2.94189 23.8926 2.84313 24.0384 2.77036 24.1999V28.7263H58.2192V24.1061C58.2192 24.0072 58.1829 23.9186 58.1205 23.8613H58.1153C58.0529 23.7988 57.9646 23.7571 57.8658 23.7571H3.12381C3.10302 23.7571 3.08223 23.7571 3.06143 23.7623ZM8.3059 44.1234H18.2075V47.8372H8.3059V44.1234ZM8.3059 52.9158H35.9836V56.265H8.3059V52.9158ZM44.8092 44.1234H54.7108V47.8372H44.8092V44.1234ZM32.6414 44.1234H42.543V47.8372H32.6414V44.1234ZM20.4737 44.1234H30.3753V47.8372H20.4737V44.1234ZM58.2192 39.1386H2.77036V60.8747C2.77036 60.9737 2.80675 61.0623 2.87432 61.1248H2.87952C2.94709 61.1925 3.03545 61.2289 3.12381 61.2289H57.871C57.9646 61.2289 58.0529 61.1873 58.1205 61.1248C58.1881 61.057 58.2244 60.9685 58.2244 60.8747V39.1386H58.2192Z" fill="#29B2FE"/>
</svg>
